%TF.GenerationSoftware,KiCad,Pcbnew,8.0.4+dfsg-1*%
%TF.CreationDate,2024-08-20T18:38:00-05:00*%
%TF.ProjectId,car-esp32-detector-de-obstaculos,6361722d-6573-4703-9332-2d6465746563,rev?*%
%TF.SameCoordinates,Original*%
%TF.FileFunction,Legend,Top*%
%TF.FilePolarity,Positive*%
%FSLAX46Y46*%
G04 Gerber Fmt 4.6, Leading zero omitted, Abs format (unit mm)*
G04 Created by KiCad (PCBNEW 8.0.4+dfsg-1) date 2024-08-20 18:38:00*
%MOMM*%
%LPD*%
G01*
G04 APERTURE LIST*
%ADD10C,0.150000*%
%ADD11C,0.127000*%
%ADD12C,0.200000*%
%ADD13C,0.120000*%
G04 APERTURE END LIST*
D10*
X43366666Y-126054819D02*
X43033333Y-125578628D01*
X42795238Y-126054819D02*
X42795238Y-125054819D01*
X42795238Y-125054819D02*
X43176190Y-125054819D01*
X43176190Y-125054819D02*
X43271428Y-125102438D01*
X43271428Y-125102438D02*
X43319047Y-125150057D01*
X43319047Y-125150057D02*
X43366666Y-125245295D01*
X43366666Y-125245295D02*
X43366666Y-125388152D01*
X43366666Y-125388152D02*
X43319047Y-125483390D01*
X43319047Y-125483390D02*
X43271428Y-125531009D01*
X43271428Y-125531009D02*
X43176190Y-125578628D01*
X43176190Y-125578628D02*
X42795238Y-125578628D01*
X43795238Y-125531009D02*
X44128571Y-125531009D01*
X44271428Y-126054819D02*
X43795238Y-126054819D01*
X43795238Y-126054819D02*
X43795238Y-125054819D01*
X43795238Y-125054819D02*
X44271428Y-125054819D01*
X45033333Y-125531009D02*
X44700000Y-125531009D01*
X44700000Y-126054819D02*
X44700000Y-125054819D01*
X44700000Y-125054819D02*
X45176190Y-125054819D01*
X45700000Y-125054819D02*
X45700000Y-125292914D01*
X45461905Y-125197676D02*
X45700000Y-125292914D01*
X45700000Y-125292914D02*
X45938095Y-125197676D01*
X45557143Y-125483390D02*
X45700000Y-125292914D01*
X45700000Y-125292914D02*
X45842857Y-125483390D01*
X46461905Y-125054819D02*
X46461905Y-125292914D01*
X46223810Y-125197676D02*
X46461905Y-125292914D01*
X46461905Y-125292914D02*
X46700000Y-125197676D01*
X46319048Y-125483390D02*
X46461905Y-125292914D01*
X46461905Y-125292914D02*
X46604762Y-125483390D01*
X93093095Y-90814819D02*
X93093095Y-91624342D01*
X93093095Y-91624342D02*
X93140714Y-91719580D01*
X93140714Y-91719580D02*
X93188333Y-91767200D01*
X93188333Y-91767200D02*
X93283571Y-91814819D01*
X93283571Y-91814819D02*
X93474047Y-91814819D01*
X93474047Y-91814819D02*
X93569285Y-91767200D01*
X93569285Y-91767200D02*
X93616904Y-91719580D01*
X93616904Y-91719580D02*
X93664523Y-91624342D01*
X93664523Y-91624342D02*
X93664523Y-90814819D01*
X94664523Y-91814819D02*
X94093095Y-91814819D01*
X94378809Y-91814819D02*
X94378809Y-90814819D01*
X94378809Y-90814819D02*
X94283571Y-90957676D01*
X94283571Y-90957676D02*
X94188333Y-91052914D01*
X94188333Y-91052914D02*
X94093095Y-91100533D01*
X45216666Y-76204819D02*
X45216666Y-76919104D01*
X45216666Y-76919104D02*
X45169047Y-77061961D01*
X45169047Y-77061961D02*
X45073809Y-77157200D01*
X45073809Y-77157200D02*
X44930952Y-77204819D01*
X44930952Y-77204819D02*
X44835714Y-77204819D01*
X45597619Y-76204819D02*
X46216666Y-76204819D01*
X46216666Y-76204819D02*
X45883333Y-76585771D01*
X45883333Y-76585771D02*
X46026190Y-76585771D01*
X46026190Y-76585771D02*
X46121428Y-76633390D01*
X46121428Y-76633390D02*
X46169047Y-76681009D01*
X46169047Y-76681009D02*
X46216666Y-76776247D01*
X46216666Y-76776247D02*
X46216666Y-77014342D01*
X46216666Y-77014342D02*
X46169047Y-77109580D01*
X46169047Y-77109580D02*
X46121428Y-77157200D01*
X46121428Y-77157200D02*
X46026190Y-77204819D01*
X46026190Y-77204819D02*
X45740476Y-77204819D01*
X45740476Y-77204819D02*
X45645238Y-77157200D01*
X45645238Y-77157200D02*
X45597619Y-77109580D01*
X47048095Y-95794819D02*
X47048095Y-96604342D01*
X47048095Y-96604342D02*
X47095714Y-96699580D01*
X47095714Y-96699580D02*
X47143333Y-96747200D01*
X47143333Y-96747200D02*
X47238571Y-96794819D01*
X47238571Y-96794819D02*
X47429047Y-96794819D01*
X47429047Y-96794819D02*
X47524285Y-96747200D01*
X47524285Y-96747200D02*
X47571904Y-96699580D01*
X47571904Y-96699580D02*
X47619523Y-96604342D01*
X47619523Y-96604342D02*
X47619523Y-95794819D01*
X48000476Y-95794819D02*
X48619523Y-95794819D01*
X48619523Y-95794819D02*
X48286190Y-96175771D01*
X48286190Y-96175771D02*
X48429047Y-96175771D01*
X48429047Y-96175771D02*
X48524285Y-96223390D01*
X48524285Y-96223390D02*
X48571904Y-96271009D01*
X48571904Y-96271009D02*
X48619523Y-96366247D01*
X48619523Y-96366247D02*
X48619523Y-96604342D01*
X48619523Y-96604342D02*
X48571904Y-96699580D01*
X48571904Y-96699580D02*
X48524285Y-96747200D01*
X48524285Y-96747200D02*
X48429047Y-96794819D01*
X48429047Y-96794819D02*
X48143333Y-96794819D01*
X48143333Y-96794819D02*
X48048095Y-96747200D01*
X48048095Y-96747200D02*
X48000476Y-96699580D01*
X50294819Y-42833333D02*
X51009104Y-42833333D01*
X51009104Y-42833333D02*
X51151961Y-42880952D01*
X51151961Y-42880952D02*
X51247200Y-42976190D01*
X51247200Y-42976190D02*
X51294819Y-43119047D01*
X51294819Y-43119047D02*
X51294819Y-43214285D01*
X50294819Y-41880952D02*
X50294819Y-42357142D01*
X50294819Y-42357142D02*
X50771009Y-42404761D01*
X50771009Y-42404761D02*
X50723390Y-42357142D01*
X50723390Y-42357142D02*
X50675771Y-42261904D01*
X50675771Y-42261904D02*
X50675771Y-42023809D01*
X50675771Y-42023809D02*
X50723390Y-41928571D01*
X50723390Y-41928571D02*
X50771009Y-41880952D01*
X50771009Y-41880952D02*
X50866247Y-41833333D01*
X50866247Y-41833333D02*
X51104342Y-41833333D01*
X51104342Y-41833333D02*
X51199580Y-41880952D01*
X51199580Y-41880952D02*
X51247200Y-41928571D01*
X51247200Y-41928571D02*
X51294819Y-42023809D01*
X51294819Y-42023809D02*
X51294819Y-42261904D01*
X51294819Y-42261904D02*
X51247200Y-42357142D01*
X51247200Y-42357142D02*
X51199580Y-42404761D01*
X45966666Y-55164819D02*
X45966666Y-55879104D01*
X45966666Y-55879104D02*
X45919047Y-56021961D01*
X45919047Y-56021961D02*
X45823809Y-56117200D01*
X45823809Y-56117200D02*
X45680952Y-56164819D01*
X45680952Y-56164819D02*
X45585714Y-56164819D01*
X46395238Y-55260057D02*
X46442857Y-55212438D01*
X46442857Y-55212438D02*
X46538095Y-55164819D01*
X46538095Y-55164819D02*
X46776190Y-55164819D01*
X46776190Y-55164819D02*
X46871428Y-55212438D01*
X46871428Y-55212438D02*
X46919047Y-55260057D01*
X46919047Y-55260057D02*
X46966666Y-55355295D01*
X46966666Y-55355295D02*
X46966666Y-55450533D01*
X46966666Y-55450533D02*
X46919047Y-55593390D01*
X46919047Y-55593390D02*
X46347619Y-56164819D01*
X46347619Y-56164819D02*
X46966666Y-56164819D01*
X89114285Y-110931009D02*
X89257142Y-110978628D01*
X89257142Y-110978628D02*
X89304761Y-111026247D01*
X89304761Y-111026247D02*
X89352380Y-111121485D01*
X89352380Y-111121485D02*
X89352380Y-111264342D01*
X89352380Y-111264342D02*
X89304761Y-111359580D01*
X89304761Y-111359580D02*
X89257142Y-111407200D01*
X89257142Y-111407200D02*
X89161904Y-111454819D01*
X89161904Y-111454819D02*
X88780952Y-111454819D01*
X88780952Y-111454819D02*
X88780952Y-110454819D01*
X88780952Y-110454819D02*
X89114285Y-110454819D01*
X89114285Y-110454819D02*
X89209523Y-110502438D01*
X89209523Y-110502438D02*
X89257142Y-110550057D01*
X89257142Y-110550057D02*
X89304761Y-110645295D01*
X89304761Y-110645295D02*
X89304761Y-110740533D01*
X89304761Y-110740533D02*
X89257142Y-110835771D01*
X89257142Y-110835771D02*
X89209523Y-110883390D01*
X89209523Y-110883390D02*
X89114285Y-110931009D01*
X89114285Y-110931009D02*
X88780952Y-110931009D01*
X89638095Y-110454819D02*
X90209523Y-110454819D01*
X89923809Y-111454819D02*
X89923809Y-110454819D01*
X91066666Y-111454819D02*
X90495238Y-111454819D01*
X90780952Y-111454819D02*
X90780952Y-110454819D01*
X90780952Y-110454819D02*
X90685714Y-110597676D01*
X90685714Y-110597676D02*
X90590476Y-110692914D01*
X90590476Y-110692914D02*
X90495238Y-110740533D01*
X103609580Y-49166666D02*
X103657200Y-49214285D01*
X103657200Y-49214285D02*
X103704819Y-49357142D01*
X103704819Y-49357142D02*
X103704819Y-49452380D01*
X103704819Y-49452380D02*
X103657200Y-49595237D01*
X103657200Y-49595237D02*
X103561961Y-49690475D01*
X103561961Y-49690475D02*
X103466723Y-49738094D01*
X103466723Y-49738094D02*
X103276247Y-49785713D01*
X103276247Y-49785713D02*
X103133390Y-49785713D01*
X103133390Y-49785713D02*
X102942914Y-49738094D01*
X102942914Y-49738094D02*
X102847676Y-49690475D01*
X102847676Y-49690475D02*
X102752438Y-49595237D01*
X102752438Y-49595237D02*
X102704819Y-49452380D01*
X102704819Y-49452380D02*
X102704819Y-49357142D01*
X102704819Y-49357142D02*
X102752438Y-49214285D01*
X102752438Y-49214285D02*
X102800057Y-49166666D01*
X103704819Y-48214285D02*
X103704819Y-48785713D01*
X103704819Y-48499999D02*
X102704819Y-48499999D01*
X102704819Y-48499999D02*
X102847676Y-48595237D01*
X102847676Y-48595237D02*
X102942914Y-48690475D01*
X102942914Y-48690475D02*
X102990533Y-48785713D01*
X50294819Y-39083333D02*
X51009104Y-39083333D01*
X51009104Y-39083333D02*
X51151961Y-39130952D01*
X51151961Y-39130952D02*
X51247200Y-39226190D01*
X51247200Y-39226190D02*
X51294819Y-39369047D01*
X51294819Y-39369047D02*
X51294819Y-39464285D01*
X51294819Y-38083333D02*
X51294819Y-38654761D01*
X51294819Y-38369047D02*
X50294819Y-38369047D01*
X50294819Y-38369047D02*
X50437676Y-38464285D01*
X50437676Y-38464285D02*
X50532914Y-38559523D01*
X50532914Y-38559523D02*
X50580533Y-38654761D01*
X126574819Y-57701904D02*
X127384342Y-57701904D01*
X127384342Y-57701904D02*
X127479580Y-57654285D01*
X127479580Y-57654285D02*
X127527200Y-57606666D01*
X127527200Y-57606666D02*
X127574819Y-57511428D01*
X127574819Y-57511428D02*
X127574819Y-57320952D01*
X127574819Y-57320952D02*
X127527200Y-57225714D01*
X127527200Y-57225714D02*
X127479580Y-57178095D01*
X127479580Y-57178095D02*
X127384342Y-57130476D01*
X127384342Y-57130476D02*
X126574819Y-57130476D01*
X126670057Y-56701904D02*
X126622438Y-56654285D01*
X126622438Y-56654285D02*
X126574819Y-56559047D01*
X126574819Y-56559047D02*
X126574819Y-56320952D01*
X126574819Y-56320952D02*
X126622438Y-56225714D01*
X126622438Y-56225714D02*
X126670057Y-56178095D01*
X126670057Y-56178095D02*
X126765295Y-56130476D01*
X126765295Y-56130476D02*
X126860533Y-56130476D01*
X126860533Y-56130476D02*
X127003390Y-56178095D01*
X127003390Y-56178095D02*
X127574819Y-56749523D01*
X127574819Y-56749523D02*
X127574819Y-56130476D01*
X128154819Y-57973333D02*
X128869104Y-57973333D01*
X128869104Y-57973333D02*
X129011961Y-58020952D01*
X129011961Y-58020952D02*
X129107200Y-58116190D01*
X129107200Y-58116190D02*
X129154819Y-58259047D01*
X129154819Y-58259047D02*
X129154819Y-58354285D01*
X128488152Y-57068571D02*
X129154819Y-57068571D01*
X128107200Y-57306666D02*
X128821485Y-57544761D01*
X128821485Y-57544761D02*
X128821485Y-56925714D01*
D11*
%TO.C,U1*%
X68270000Y-38525000D02*
X96780000Y-38525000D01*
X68270000Y-89475000D02*
X68270000Y-38525000D01*
X68270000Y-89475000D02*
X68270000Y-38525000D01*
X73720000Y-38525000D02*
X68270000Y-38525000D01*
X79000000Y-89475000D02*
X68270000Y-89475000D01*
X85711000Y-89475000D02*
X79000000Y-89475000D01*
X91410000Y-38525000D02*
X73720000Y-38525000D01*
X96780000Y-38525000D02*
X91410000Y-38525000D01*
X96780000Y-38525000D02*
X96780000Y-89475000D01*
X96780000Y-38525000D02*
X96780000Y-89475000D01*
X96780000Y-89475000D02*
X68270000Y-89475000D01*
X96780000Y-89475000D02*
X85711000Y-89475000D01*
D12*
X97450000Y-79515000D02*
G75*
G02*
X97250000Y-79515000I-100000J0D01*
G01*
X97250000Y-79515000D02*
G75*
G02*
X97450000Y-79515000I100000J0D01*
G01*
D13*
%TO.C,J3*%
X40200000Y-66400000D02*
X54900000Y-66400000D01*
X40200000Y-75600000D02*
X40200000Y-66400000D01*
X49000000Y-75600000D02*
X40200000Y-75600000D01*
X54050000Y-66200000D02*
X55100000Y-66200000D01*
X54900000Y-66400000D02*
X54900000Y-69000000D01*
X54900000Y-72900000D02*
X54900000Y-75600000D01*
X54900000Y-75600000D02*
X53000000Y-75600000D01*
X55100000Y-67250000D02*
X55100000Y-66200000D01*
%TO.C,U3*%
X40190000Y-82870000D02*
X55430000Y-82870000D01*
X55430000Y-108270000D01*
X40190000Y-108270000D01*
X40190000Y-82870000D01*
%TO.C,J5*%
X51840000Y-43830000D02*
X51840000Y-42500000D01*
X53170000Y-43830000D02*
X51840000Y-43830000D01*
X54440000Y-41170000D02*
X59580000Y-41170000D01*
X54440000Y-43830000D02*
X54440000Y-41170000D01*
X54440000Y-43830000D02*
X59580000Y-43830000D01*
X59580000Y-43830000D02*
X59580000Y-41170000D01*
%TO.C,J2*%
X44970000Y-51670000D02*
X44970000Y-43990000D01*
X44970000Y-54270000D02*
X44970000Y-52940000D01*
X46300000Y-54270000D02*
X44970000Y-54270000D01*
X47630000Y-43990000D02*
X44970000Y-43990000D01*
X47630000Y-51670000D02*
X44970000Y-51670000D01*
X47630000Y-51670000D02*
X47630000Y-43990000D01*
%TO.C,BT1*%
X46150000Y-116500000D02*
X48650000Y-116500000D01*
X47400000Y-117750000D02*
X47400000Y-115250000D01*
X51260000Y-112060000D02*
X51260000Y-119060000D01*
X51260000Y-119060000D02*
X46900000Y-119060000D01*
X51260000Y-132940000D02*
X51260000Y-125940000D01*
X128540000Y-112060000D02*
X51260000Y-112060000D01*
X128540000Y-119060000D02*
X128540000Y-112080000D01*
X128540000Y-125940000D02*
X128540000Y-132940000D01*
X128540000Y-132940000D02*
X51260000Y-132940000D01*
X133650000Y-116500000D02*
X131150000Y-116500000D01*
%TO.C,C1*%
X105525000Y-51804775D02*
X105525000Y-51304775D01*
X105275000Y-51554775D02*
X105775000Y-51554775D01*
X104420000Y-49000000D02*
X105960000Y-49000000D01*
X108040000Y-49000000D02*
X109580000Y-49000000D01*
X104420000Y-48960000D02*
X105960000Y-48960000D01*
X108040000Y-48960000D02*
X109580000Y-48960000D01*
X104421000Y-48920000D02*
X105960000Y-48920000D01*
X108040000Y-48920000D02*
X109579000Y-48920000D01*
X104422000Y-48880000D02*
X105960000Y-48880000D01*
X108040000Y-48880000D02*
X109578000Y-48880000D01*
X104424000Y-48840000D02*
X105960000Y-48840000D01*
X108040000Y-48840000D02*
X109576000Y-48840000D01*
X104427000Y-48800000D02*
X105960000Y-48800000D01*
X108040000Y-48800000D02*
X109573000Y-48800000D01*
X104431000Y-48760000D02*
X105960000Y-48760000D01*
X108040000Y-48760000D02*
X109569000Y-48760000D01*
X104435000Y-48720000D02*
X105960000Y-48720000D01*
X108040000Y-48720000D02*
X109565000Y-48720000D01*
X104439000Y-48680000D02*
X105960000Y-48680000D01*
X108040000Y-48680000D02*
X109561000Y-48680000D01*
X104444000Y-48640000D02*
X105960000Y-48640000D01*
X108040000Y-48640000D02*
X109556000Y-48640000D01*
X104450000Y-48600000D02*
X105960000Y-48600000D01*
X108040000Y-48600000D02*
X109550000Y-48600000D01*
X104457000Y-48560000D02*
X105960000Y-48560000D01*
X108040000Y-48560000D02*
X109543000Y-48560000D01*
X104464000Y-48520000D02*
X105960000Y-48520000D01*
X108040000Y-48520000D02*
X109536000Y-48520000D01*
X104472000Y-48480000D02*
X105960000Y-48480000D01*
X108040000Y-48480000D02*
X109528000Y-48480000D01*
X104480000Y-48440000D02*
X105960000Y-48440000D01*
X108040000Y-48440000D02*
X109520000Y-48440000D01*
X104489000Y-48400000D02*
X105960000Y-48400000D01*
X108040000Y-48400000D02*
X109511000Y-48400000D01*
X104499000Y-48360000D02*
X105960000Y-48360000D01*
X108040000Y-48360000D02*
X109501000Y-48360000D01*
X104509000Y-48320000D02*
X105960000Y-48320000D01*
X108040000Y-48320000D02*
X109491000Y-48320000D01*
X104520000Y-48279000D02*
X105960000Y-48279000D01*
X108040000Y-48279000D02*
X109480000Y-48279000D01*
X104532000Y-48239000D02*
X105960000Y-48239000D01*
X108040000Y-48239000D02*
X109468000Y-48239000D01*
X104545000Y-48199000D02*
X105960000Y-48199000D01*
X108040000Y-48199000D02*
X109455000Y-48199000D01*
X104558000Y-48159000D02*
X105960000Y-48159000D01*
X108040000Y-48159000D02*
X109442000Y-48159000D01*
X104572000Y-48119000D02*
X105960000Y-48119000D01*
X108040000Y-48119000D02*
X109428000Y-48119000D01*
X104586000Y-48079000D02*
X105960000Y-48079000D01*
X108040000Y-48079000D02*
X109414000Y-48079000D01*
X104602000Y-48039000D02*
X105960000Y-48039000D01*
X108040000Y-48039000D02*
X109398000Y-48039000D01*
X104618000Y-47999000D02*
X105960000Y-47999000D01*
X108040000Y-47999000D02*
X109382000Y-47999000D01*
X104635000Y-47959000D02*
X105960000Y-47959000D01*
X108040000Y-47959000D02*
X109365000Y-47959000D01*
X104652000Y-47919000D02*
X105960000Y-47919000D01*
X108040000Y-47919000D02*
X109348000Y-47919000D01*
X104671000Y-47879000D02*
X105960000Y-47879000D01*
X108040000Y-47879000D02*
X109329000Y-47879000D01*
X104690000Y-47839000D02*
X105960000Y-47839000D01*
X108040000Y-47839000D02*
X109310000Y-47839000D01*
X104710000Y-47799000D02*
X105960000Y-47799000D01*
X108040000Y-47799000D02*
X109290000Y-47799000D01*
X104732000Y-47759000D02*
X105960000Y-47759000D01*
X108040000Y-47759000D02*
X109268000Y-47759000D01*
X104753000Y-47719000D02*
X105960000Y-47719000D01*
X108040000Y-47719000D02*
X109247000Y-47719000D01*
X104776000Y-47679000D02*
X105960000Y-47679000D01*
X108040000Y-47679000D02*
X109224000Y-47679000D01*
X104800000Y-47639000D02*
X105960000Y-47639000D01*
X108040000Y-47639000D02*
X109200000Y-47639000D01*
X104825000Y-47599000D02*
X105960000Y-47599000D01*
X108040000Y-47599000D02*
X109175000Y-47599000D01*
X104851000Y-47559000D02*
X105960000Y-47559000D01*
X108040000Y-47559000D02*
X109149000Y-47559000D01*
X104878000Y-47519000D02*
X105960000Y-47519000D01*
X108040000Y-47519000D02*
X109122000Y-47519000D01*
X104905000Y-47479000D02*
X105960000Y-47479000D01*
X108040000Y-47479000D02*
X109095000Y-47479000D01*
X104935000Y-47439000D02*
X105960000Y-47439000D01*
X108040000Y-47439000D02*
X109065000Y-47439000D01*
X104965000Y-47399000D02*
X105960000Y-47399000D01*
X108040000Y-47399000D02*
X109035000Y-47399000D01*
X104996000Y-47359000D02*
X105960000Y-47359000D01*
X108040000Y-47359000D02*
X109004000Y-47359000D01*
X105029000Y-47319000D02*
X105960000Y-47319000D01*
X108040000Y-47319000D02*
X108971000Y-47319000D01*
X105063000Y-47279000D02*
X105960000Y-47279000D01*
X108040000Y-47279000D02*
X108937000Y-47279000D01*
X105099000Y-47239000D02*
X105960000Y-47239000D01*
X108040000Y-47239000D02*
X108901000Y-47239000D01*
X105136000Y-47199000D02*
X105960000Y-47199000D01*
X108040000Y-47199000D02*
X108864000Y-47199000D01*
X105174000Y-47159000D02*
X105960000Y-47159000D01*
X108040000Y-47159000D02*
X108826000Y-47159000D01*
X105215000Y-47119000D02*
X105960000Y-47119000D01*
X108040000Y-47119000D02*
X108785000Y-47119000D01*
X105257000Y-47079000D02*
X105960000Y-47079000D01*
X108040000Y-47079000D02*
X108743000Y-47079000D01*
X105301000Y-47039000D02*
X105960000Y-47039000D01*
X108040000Y-47039000D02*
X108699000Y-47039000D01*
X105347000Y-46999000D02*
X105960000Y-46999000D01*
X108040000Y-46999000D02*
X108653000Y-46999000D01*
X105395000Y-46959000D02*
X108605000Y-46959000D01*
X105446000Y-46919000D02*
X108554000Y-46919000D01*
X105500000Y-46879000D02*
X108500000Y-46879000D01*
X105557000Y-46839000D02*
X108443000Y-46839000D01*
X105617000Y-46799000D02*
X108383000Y-46799000D01*
X105681000Y-46759000D02*
X108319000Y-46759000D01*
X105749000Y-46719000D02*
X108251000Y-46719000D01*
X105822000Y-46679000D02*
X108178000Y-46679000D01*
X105902000Y-46639000D02*
X108098000Y-46639000D01*
X105989000Y-46599000D02*
X108011000Y-46599000D01*
X106085000Y-46559000D02*
X107915000Y-46559000D01*
X106195000Y-46519000D02*
X107805000Y-46519000D01*
X106323000Y-46479000D02*
X107677000Y-46479000D01*
X106482000Y-46439000D02*
X107518000Y-46439000D01*
X106716000Y-46399000D02*
X107284000Y-46399000D01*
X109620000Y-49000000D02*
G75*
G02*
X104380000Y-49000000I-2620000J0D01*
G01*
X104380000Y-49000000D02*
G75*
G02*
X109620000Y-49000000I2620000J0D01*
G01*
%TO.C,J1*%
X51840000Y-40080000D02*
X51840000Y-38750000D01*
X53170000Y-40080000D02*
X51840000Y-40080000D01*
X54440000Y-37420000D02*
X59580000Y-37420000D01*
X54440000Y-40080000D02*
X54440000Y-37420000D01*
X54440000Y-40080000D02*
X59580000Y-40080000D01*
X59580000Y-40080000D02*
X59580000Y-37420000D01*
%TO.C,U2*%
X126120000Y-54290000D02*
X105680000Y-54290000D01*
X105680000Y-54290000D02*
X105680000Y-59590000D01*
X126120000Y-55940000D02*
X126120000Y-54290000D01*
X126120000Y-59590000D02*
X126120000Y-57940000D01*
X105680000Y-59590000D02*
X126120000Y-59590000D01*
X126120000Y-57940000D02*
G75*
G02*
X126120000Y-55940000I0J1000000D01*
G01*
%TO.C,J4*%
X129690000Y-67780000D02*
X129690000Y-47460000D01*
X129690000Y-67780000D02*
X137310000Y-67780000D01*
X136040000Y-47460000D02*
X136040000Y-67780000D01*
X137310000Y-47460000D02*
X129690000Y-47460000D01*
X137310000Y-67780000D02*
X137310000Y-47460000D01*
%TD*%
M02*
