M48
; DRILL file {KiCad 8.0.4+dfsg-1} date 2024-08-20T18:37:39-0500
; FORMAT={-:-/ absolute / inch / decimal}
; #@! TF.CreationDate,2024-08-20T18:37:39-05:00
; #@! TF.GenerationSoftware,Kicad,Pcbnew,8.0.4+dfsg-1
; #@! TF.FileFunction,Plated,1,2,PTH
FMAT,2
INCH
; #@! TA.AperFunction,Plated,PTH,ViaDrill
T1C0.0256
; #@! TA.AperFunction,Plated,PTH,ComponentDrill
T2C0.0300
; #@! TA.AperFunction,Plated,PTH,ComponentDrill
T3C0.0315
; #@! TA.AperFunction,Plated,PTH,ComponentDrill
T4C0.0394
; #@! TA.AperFunction,Plated,PTH,ComponentDrill
T5C0.0402
; #@! TA.AperFunction,Plated,PTH,ComponentDrill
T6C0.0598
%
G90
G05
T1
X1.7717Y-4.8228
X3.9075Y-2.6575
X3.9075Y-2.7953
X3.9567Y-2.1949
X4.0957Y-2.1961
X5.0748Y-2.6457
X5.0787Y-1.8425
X5.1575Y-2.8543
X5.1575Y-3.0315
X5.3051Y-4.8228
T2
X1.6323Y-4.2126
X1.7323Y-4.2126
X1.8323Y-4.2126
X1.9323Y-4.2126
X2.0323Y-4.2126
X2.1323Y-4.2126
T3
X4.2126Y-1.8898
X4.2126Y-1.9685
X4.213Y-2.0917
X4.213Y-2.3917
X4.313Y-2.0917
X4.313Y-2.3917
X4.413Y-2.0917
X4.413Y-2.3917
X4.513Y-2.0917
X4.513Y-2.3917
X4.613Y-2.0917
X4.613Y-2.3917
X4.713Y-2.0917
X4.713Y-2.3917
X4.813Y-2.0917
X4.813Y-2.3917
X4.913Y-2.0917
X4.913Y-2.3917
T4
X1.8228Y-1.7843
X1.8228Y-1.8843
X1.8228Y-1.9843
X1.8228Y-2.0843
X2.0933Y-1.5256
X2.0933Y-1.6732
X2.1933Y-1.5256
X2.1933Y-1.6732
X2.2933Y-1.5256
X2.2933Y-1.6732
T5
X2.748Y-1.7305
X2.748Y-1.8305
X2.748Y-1.9305
X2.748Y-2.0305
X2.748Y-2.1305
X2.748Y-2.2305
X2.748Y-2.3305
X2.748Y-2.4305
X2.748Y-2.5305
X2.748Y-2.6305
X2.748Y-2.7305
X2.748Y-2.8305
X2.748Y-2.9305
X2.748Y-3.0305
X2.748Y-3.1305
X3.748Y-1.7305
X3.748Y-1.8305
X3.748Y-1.9305
X3.748Y-2.0305
X3.748Y-2.1305
X3.748Y-2.2305
X3.748Y-2.3305
X3.748Y-2.4305
X3.748Y-2.5305
X3.748Y-2.6305
X3.748Y-2.7305
X3.748Y-2.8305
X3.748Y-2.9305
X3.748Y-3.0305
X3.748Y-3.1305
T6
X5.2559Y-1.9685
X5.2559Y-2.1685
X5.2559Y-2.3685
X5.2559Y-2.5685
T4
G00X1.8898Y-2.7559
M15
G01X1.8898Y-2.8346
M16
G05
G00X1.9685Y-2.9803
M15
G01X2.0472Y-2.9803
M16
G05
G00X2.126Y-2.7559
M15
G01X2.126Y-2.8346
M16
G05
M30
